<svg xmlns="http://www.w3.org/2000/svg" viewBox="0 0 64 64" width="64" height="64">
  <defs>
    <linearGradient id="caseGrad" x1="0" y1="0" x2="0" y2="1">
      <stop offset="0%" stop-color="#4a4a5a"/>
      <stop offset="100%" stop-color="#2a2a35"/>
    </linearGradient>
    <pattern id="scanlines" patternUnits="userSpaceOnUse" width="64" height="2">
      <rect width="64" height="1" fill="rgba(0,0,0,0.15)"/>
    </pattern>
  </defs>
  <rect x="4" y="4" width="56" height="44" rx="4" ry="4" fill="url(#caseGrad)" stroke="#1a1a22" stroke-width="2"/>
  <rect x="8" y="8" width="48" height="36" rx="2" ry="2" fill="#0a0a12"/>
  <rect x="10" y="10" width="44" height="32" rx="1" ry="1" fill="#001a0a"/>
  <rect x="14" y="32" width="4" height="8" fill="#00ff88" opacity="0.9"/>
  <rect x="20" y="28" width="4" height="12" fill="#00ff88" opacity="0.9"/>
  <rect x="26" y="24" width="4" height="16" fill="#00ff88" opacity="0.9"/>
  <rect x="32" y="30" width="4" height="10" fill="#00ff88" opacity="0.9"/>
  <rect x="38" y="20" width="4" height="20" fill="#00ff88" opacity="0.9"/>
  <rect x="44" y="26" width="4" height="14" fill="#00ff88" opacity="0.9"/>
  <g stroke="#00ff88" stroke-width="1.5" fill="none" opacity="0.9">
    <ellipse cx="22" cy="17" rx="5" ry="3" transform="rotate(-30 22 17)"/>
    <ellipse cx="30" cy="17" rx="5" ry="3" transform="rotate(-30 30 17)"/>
    <line x1="24" y1="16" x2="28" y2="18" stroke-width="1"/>
  </g>
  <rect x="49" y="14" width="2" height="6" fill="#00ff88" opacity="0.85"/>
  <rect x="10" y="10" width="44" height="32" fill="url(#scanlines)" rx="1" ry="1"/>
  <rect x="24" y="48" width="16" height="4" rx="1" ry="1" fill="url(#caseGrad)" stroke="#1a1a22" stroke-width="1"/>
  <rect x="20" y="52" width="24" height="3" rx="1.5" ry="1.5" fill="url(#caseGrad)" stroke="#1a1a22" stroke-width="1"/>
  <circle cx="32" cy="46" r="1.2" fill="#00ff88" opacity="0.9"/>
</svg>
